HIERARCHY
ROOT Hips
{
	OFFSET 0.00 0.00 0.00
	CHANNELS 6 Xposition Yposition Zposition Xrotation Yrotation Zrotation
	JOINT Spine
	{
		OFFSET 0.00000 7.17041 0.00000
		CHANNELS 3 Xrotation Yrotation Zrotation
		JOINT Head
		{
			OFFSET 0.00000 14.27615 0.00000
			CHANNELS 3 Xrotation Yrotation Zrotation
			End Site
			{
				OFFSET 0.00000 4.52755 0.00000
			}
		}
		JOINT LeftShoulder
		{
			OFFSET 0.00000 10.71824 0.00000
			CHANNELS 3 Xrotation Yrotation Zrotation
			JOINT LeftArm
			{
				OFFSET 7.05887 0.00000 0.00000
				CHANNELS 3 Xrotation Yrotation Zrotation
				JOINT LeftForeArm
				{
					OFFSET 10.95552 0.00000 0.00000
					CHANNELS 3 Yrotation Zrotation Xrotation
					JOINT LeftHand
					{
						OFFSET 8.19372 0.00000 0.00000
						CHANNELS 3 Xrotation Yrotation Zrotation
						JOINT LeftHandThumb1
						{
							OFFSET 0.00000 0.00000 0.00000
							CHANNELS 3 Xrotation Zrotation Yrotation
							End Site
							{
								OFFSET 0.00000 0.00000 3.93700
							}
						}
						End Site
						{
							OFFSET 3.93700 0.00000 0.00000
						}
					}
				}
			}
		}
		JOINT RightShoulder
		{
			OFFSET 0.00000 10.71824 0.00000
			CHANNELS 3 Xrotation Yrotation Zrotation
			JOINT RightArm
			{
				OFFSET -7.05887 0.00000 0.00000
				CHANNELS 3 Xrotation Yrotation Zrotation
				JOINT RightForeArm
				{
					OFFSET -10.95552 0.00000 0.00000
					CHANNELS 3 Yrotation Zrotation Xrotation
					JOINT RightHand
					{
						OFFSET -8.19372 0.00000 0.00000
						CHANNELS 3 Xrotation Yrotation Zrotation
						JOINT RightHandThumb1
						{
							OFFSET 0.00000 0.00000 0.00000
							CHANNELS 3 Xrotation Zrotation Yrotation
							End Site
							{
								OFFSET 0.00000 0.00000 3.93700
							}
						}
						End Site
						{
							OFFSET -3.93700 0.00000 0.00000
						}
					}
				}
			}
		}
	}
	JOINT LeftUpLeg
	{
		OFFSET 4.31835 0.00000 0.00000
		CHANNELS 3 Xrotation Yrotation Zrotation
		JOINT LeftLeg
		{
			OFFSET 0.00000 -17.32364 0.00000
			CHANNELS 3 Xrotation Yrotation Zrotation
			JOINT LeftFoot
			{
				OFFSET 0.00000 -16.27037 0.00000
				CHANNELS 3 Xrotation Yrotation Zrotation
				JOINT LeftToeBase
				{
					OFFSET 0.00000 -1.27412 4.75510
					CHANNELS 3 Xrotation Yrotation Zrotation
					End Site
					{
						OFFSET 0.00000 0.00000 2.95275
					}
				}
			}
		}
	}
	JOINT RightUpLeg
	{
		OFFSET -4.31835 0.00000 0.00000
		CHANNELS 3 Xrotation Yrotation Zrotation
		JOINT RightLeg
		{
			OFFSET 0.00000 -17.32364 0.00000
			CHANNELS 3 Xrotation Yrotation Zrotation
			JOINT RightFoot
			{
				OFFSET 0.00000 -16.27037 0.00000
				CHANNELS 3 Xrotation Yrotation Zrotation
				JOINT RightToeBase
				{
					OFFSET 0.00000 -1.27412 4.75510
					CHANNELS 3 Xrotation Yrotation Zrotation
					End Site
					{
						OFFSET 0.00000 0.00000 2.95275
					}
				}
			}
		}
	}
}
MOTION
Frames: 7
Frame Time: 0.008333
 -7.8582 35.3878 -12.5570 -2.2169 -3.0981 -5.3827 21.1879 -0.8904 2.2943 -3.1104 1.6961 -4.9443 -1.7402 10.9937 4.4292 -78.5647 -33.6677 -110.5732 -130.6410 -0.0000 49.9637 7.6756 11.1832 -34.7951 33.1476 -0.0000 26.2537 -18.2947 10.7310 -12.9675 -53.4035 24.3689 97.4645 145.4570 0.0000 50.0262 1.3163 -2.6739 26.2221 32.8623 0.0000 -24.3270 9.7547 9.9835 -1.4955 -7.7265 -0.0000 -0.0000 -14.3459 25.8283 5.5322 20.2465 -0.0000 0.0000 7.1126 -5.9488 11.1380 -4.7784 0.0000 -0.0000 -4.1456 -25.4650 -7.8947 11.2574 -0.0000 0.0000
 -7.8577 35.3871 -12.5536 -2.2045 -3.1075 -5.3861 21.1845 -0.9012 2.3056 -3.1445 1.7007 -4.9800 -1.7249 11.0549 4.4104 -78.6071 -33.6672 -110.5907 -130.6390 -0.0000 49.9389 7.6549 11.1527 -34.7942 33.1476 -0.0000 26.2537 -18.3071 10.7331 -12.9809 -53.4257 24.3783 97.4936 145.4563 0.0000 49.9737 1.3200 -2.6803 26.2321 32.8623 0.0000 -24.3270 9.7670 10.0068 -1.4971 -7.7691 -0.0000 0.0000 -14.3119 25.8154 5.5106 20.2242 -0.0000 0.0000 7.1023 -5.9282 11.1401 -4.7805 0.0000 0.0000 -4.1469 -25.4778 -7.9046 11.1903 0.0000 -0.0000
 -7.8569 35.3869 -12.5497 -2.1998 -3.1173 -5.3894 21.1678 -0.8769 2.2842 -3.1218 1.6867 -4.9259 -1.7588 10.9939 4.4405 -78.5746 -33.6772 -110.5955 -130.6444 -0.0000 49.9840 7.6571 11.1262 -34.8650 33.1476 -0.0000 26.2537 -18.3034 10.7124 -12.9530 -53.4064 24.3563 97.4631 145.4719 0.0000 49.9363 1.3189 -2.6788 26.2251 32.8623 0.0000 -24.3270 9.7831 10.0190 -1.4975 -7.7937 -0.0000 0.0000 -14.3014 25.8190 5.4866 20.2005 0.0000 -0.0000 7.1022 -5.9558 11.1428 -4.7682 -0.0000 -0.0000 -4.1654 -25.4411 -7.9172 11.2591 0.0000 -0.0000
 -7.8570 35.3866 -12.5468 -2.1910 -3.1199 -5.3945 21.1613 -0.8791 2.2791 -3.1344 1.6773 -4.9043 -1.7680 10.9934 4.4560 -78.5756 -33.6802 -110.6043 -130.6488 -0.0000 49.9746 7.6353 11.1017 -34.8459 33.1476 -0.0000 26.2537 -18.3052 10.7092 -12.9411 -53.4115 24.3587 97.4687 145.4770 0.0000 49.9504 1.3198 -2.6849 26.1891 32.8623 0.0000 -24.3270 9.7959 10.0209 -1.4951 -7.8291 -0.0000 0.0000 -14.2816 25.8229 5.4802 20.2006 0.0000 -0.0000 7.1033 -5.9385 11.1524 -4.7892 0.0000 0.0000 -4.1981 -25.4465 -8.0131 11.4239 0.0000 -0.0000
 -7.8564 35.3866 -12.5438 -2.1780 -3.1295 -5.3989 21.1539 -0.8893 2.2730 -3.1570 1.6689 -4.8846 -1.7870 11.0093 4.4644 -78.5734 -33.6802 -110.6242 -130.6539 -0.0000 50.0093 7.7348 11.2330 -34.8863 33.1476 -0.0000 26.2537 -18.3202 10.7023 -12.9303 -53.4201 24.3569 97.4778 145.4876 0.0000 49.9397 1.3197 -2.6814 26.2170 32.8623 0.0000 -24.3270 9.8038 10.0119 -1.4938 -7.8609 0.0000 -0.0000 -14.2740 25.8364 5.4832 20.2433 -0.0000 0.0000 7.0915 -5.9188 11.1511 -4.7819 0.0000 0.0000 -4.1582 -25.4678 -7.9054 11.2566 -0.0000 0.0000
 -7.8553 35.3863 -12.5409 -2.1708 -3.1331 -5.4036 21.1490 -0.8917 2.2784 -3.1661 1.6680 -4.8843 -1.8027 11.0073 4.4538 -78.5780 -33.6819 -110.6256 -130.6522 -0.0000 50.0344 7.7601 11.2426 -34.9524 33.1476 -0.0000 26.2537 -18.3150 10.7090 -12.9202 -53.4384 24.3438 97.4880 145.4899 0.0000 49.8958 1.3213 -2.6822 26.2371 32.8623 0.0000 -24.3270 9.8150 10.0325 -1.4948 -7.8906 -0.0000 0.0000 -14.2469 25.8224 5.4696 20.1803 -0.0000 -0.0000 7.0923 -5.9419 11.1562 -4.7804 -0.0000 0.0000 -4.1583 -25.4520 -7.9004 11.2124 0.0000 -0.0000
 -7.8549 35.3861 -12.5385 -2.1626 -3.1405 -5.4081 21.1467 -0.8889 2.2715 -3.1825 1.6392 -4.8691 -1.8027 11.0019 4.4479 -78.6091 -33.6660 -110.6590 -130.6520 -0.0000 50.0341 7.7525 11.1877 -35.0557 33.1476 -0.0000 26.2537 -18.3435 10.6974 -12.9134 -53.4355 24.3923 97.5009 145.4640 0.0000 50.1600 1.2910 -2.6356 26.1080 32.8623 0.0000 -24.3270 9.8188 10.0534 -1.4946 -7.9118 -0.0000 -0.0000 -14.2411 25.8174 5.4611 20.2111 -0.0000 0.0000 7.0829 -5.9194 11.1588 -4.7798 -0.0000 -0.0000 -4.1635 -25.4591 -7.9273 11.2746 0.0000 -0.0000
